# xmcd
#
# Track frame offsets: 
#        150
#        12545
#        33614
#        50374
#        75348
#        100817
#        124054
#        140997
#        162016
#        189973
#
# Disc length: 2744 seconds
#
# Revision: 0
# Processed by: cddbd v1.5.2PL0 Copyright (c) Steve Scherf et al.
# Submitted via: ExactAudioCopy v0.95b4
#
DISCID=7d0ab60a
DTITLE=Meditation - American Indians III
DYEAR=2006
DGENRE=Native American
TTITLE0=Painted caves
TTITLE1=Water
TTITLE2=Ee you oo
TTITLE3=Wha yeh
TTITLE4=The dance
TTITLE5=Rainbird
TTITLE6=Little indians
TTITLE7=Wolf song
TTITLE8=Spirits
TTITLE9=Thunder country
EXTD=
EXTT0=
EXTT1=
EXTT2=
EXTT3=
EXTT4=
EXTT5=
EXTT6=
EXTT7=
EXTT8=
EXTT9=
PLAYORDER=
